%TF.GenerationSoftware,KiCad,Pcbnew,9.0.0*%
%TF.CreationDate,2025-03-01T23:02:35+01:00*%
%TF.ProjectId,vcore3-molex-shelf,76636f72-6533-42d6-9d6f-6c65782d7368,rev?*%
%TF.SameCoordinates,Original*%
%TF.FileFunction,Copper,L1,Top*%
%TF.FilePolarity,Positive*%
%FSLAX46Y46*%
G04 Gerber Fmt 4.6, Leading zero omitted, Abs format (unit mm)*
G04 Created by KiCad (PCBNEW 9.0.0) date 2025-03-01 23:02:35*
%MOMM*%
%LPD*%
G01*
G04 APERTURE LIST*
G04 Aperture macros list*
%AMRoundRect*
0 Rectangle with rounded corners*
0 $1 Rounding radius*
0 $2 $3 $4 $5 $6 $7 $8 $9 X,Y pos of 4 corners*
0 Add a 4 corners polygon primitive as box body*
4,1,4,$2,$3,$4,$5,$6,$7,$8,$9,$2,$3,0*
0 Add four circle primitives for the rounded corners*
1,1,$1+$1,$2,$3*
1,1,$1+$1,$4,$5*
1,1,$1+$1,$6,$7*
1,1,$1+$1,$8,$9*
0 Add four rect primitives between the rounded corners*
20,1,$1+$1,$2,$3,$4,$5,0*
20,1,$1+$1,$4,$5,$6,$7,0*
20,1,$1+$1,$6,$7,$8,$9,0*
20,1,$1+$1,$8,$9,$2,$3,0*%
G04 Aperture macros list end*
%TA.AperFunction,ComponentPad*%
%ADD10RoundRect,0.250001X0.499999X0.499999X-0.499999X0.499999X-0.499999X-0.499999X0.499999X-0.499999X0*%
%TD*%
%TA.AperFunction,ComponentPad*%
%ADD11C,1.500000*%
%TD*%
%TA.AperFunction,ComponentPad*%
%ADD12R,2.200000X2.200000*%
%TD*%
%TA.AperFunction,ComponentPad*%
%ADD13C,2.200000*%
%TD*%
%TA.AperFunction,ViaPad*%
%ADD14C,0.800000*%
%TD*%
%TA.AperFunction,Conductor*%
%ADD15C,2.000000*%
%TD*%
G04 APERTURE END LIST*
D10*
%TO.P,J0,1,Pin_1*%
%TO.N,Net-(J0-Pin_1)*%
X177500000Y-107915000D03*
D11*
%TO.P,J0,2,Pin_2*%
%TO.N,Net-(J0-Pin_2)*%
X174500000Y-107915000D03*
%TO.P,J0,3,Pin_3*%
%TO.N,Net-(J0-Pin_3)*%
X177500000Y-104915000D03*
%TO.P,J0,4,Pin_4*%
%TO.N,GND*%
X174500000Y-104915000D03*
%TD*%
D12*
%TO.P,J2,1,Pin_1*%
%TO.N,Net-(J0-Pin_3)*%
X186250000Y-110920000D03*
D13*
%TO.P,J2,2,Pin_2*%
%TO.N,Net-(J0-Pin_1)*%
X186250000Y-116000000D03*
%TD*%
D12*
%TO.P,J1,1,Pin_1*%
%TO.N,Net-(J0-Pin_2)*%
X165716999Y-116000000D03*
D13*
%TO.P,J1,2,Pin_2*%
%TO.N,GND*%
X165716999Y-110920000D03*
%TD*%
D14*
%TO.N,GND*%
X179500000Y-113000000D03*
X185750000Y-113000000D03*
X165500000Y-113500000D03*
X176500000Y-102500000D03*
X168000000Y-108000000D03*
X167500000Y-118500000D03*
X169000000Y-124500000D03*
X181500000Y-105500000D03*
X172000000Y-113000000D03*
X183000000Y-124500000D03*
X188000000Y-117500000D03*
%TD*%
D15*
%TO.N,Net-(J0-Pin_2)*%
X166415000Y-116000000D02*
X165716999Y-116000000D01*
X174500000Y-107915000D02*
X166415000Y-116000000D01*
%TO.N,Net-(J0-Pin_1)*%
X185500000Y-116000000D02*
X186250000Y-116000000D01*
X177500000Y-107915000D02*
X177500000Y-108000000D01*
X177500000Y-108000000D02*
X185500000Y-116000000D01*
X185977001Y-115727001D02*
X186250000Y-116000000D01*
%TD*%
%TA.AperFunction,Conductor*%
%TO.N,GND*%
G36*
X189004119Y-101000770D02*
G01*
X189231523Y-101015674D01*
X189241163Y-101016681D01*
X189292634Y-101024081D01*
X189299176Y-101025202D01*
X189495706Y-101064294D01*
X189506582Y-101066967D01*
X189548717Y-101079338D01*
X189553663Y-101080903D01*
X189751890Y-101148193D01*
X189763707Y-101152882D01*
X189786843Y-101163448D01*
X189790168Y-101165028D01*
X189992351Y-101264733D01*
X190006607Y-101272964D01*
X190210352Y-101409102D01*
X190223418Y-101419127D01*
X190407658Y-101580701D01*
X190419298Y-101592341D01*
X190580870Y-101776579D01*
X190590897Y-101789647D01*
X190727028Y-101993381D01*
X190727030Y-101993383D01*
X190735271Y-102007657D01*
X190834957Y-102209802D01*
X190836565Y-102213188D01*
X190847112Y-102236283D01*
X190851811Y-102248123D01*
X190919081Y-102446293D01*
X190920664Y-102451296D01*
X190933027Y-102493399D01*
X190935710Y-102504317D01*
X190974786Y-102700765D01*
X190975925Y-102707416D01*
X190983314Y-102758812D01*
X190984326Y-102768501D01*
X190999230Y-102995880D01*
X190999500Y-103004121D01*
X190999500Y-123995878D01*
X190999230Y-124004118D01*
X190999230Y-124004119D01*
X190984326Y-124231497D01*
X190983314Y-124241186D01*
X190975925Y-124292582D01*
X190974786Y-124299233D01*
X190935710Y-124495681D01*
X190933027Y-124506599D01*
X190920664Y-124548702D01*
X190919081Y-124553705D01*
X190851811Y-124751875D01*
X190847112Y-124763715D01*
X190836565Y-124786810D01*
X190834957Y-124790196D01*
X190735270Y-124992342D01*
X190727029Y-125006616D01*
X190590897Y-125210352D01*
X190580864Y-125223428D01*
X190419305Y-125407651D01*
X190407651Y-125419305D01*
X190223428Y-125580864D01*
X190210352Y-125590897D01*
X190006616Y-125727029D01*
X189992342Y-125735270D01*
X189790196Y-125834957D01*
X189786810Y-125836565D01*
X189763715Y-125847112D01*
X189751875Y-125851811D01*
X189553705Y-125919081D01*
X189548702Y-125920664D01*
X189506599Y-125933027D01*
X189495681Y-125935710D01*
X189299233Y-125974786D01*
X189292582Y-125975925D01*
X189241186Y-125983314D01*
X189231497Y-125984326D01*
X189004119Y-125999230D01*
X188995878Y-125999500D01*
X163004122Y-125999500D01*
X162995881Y-125999230D01*
X162768501Y-125984326D01*
X162758812Y-125983314D01*
X162707416Y-125975925D01*
X162700765Y-125974786D01*
X162504317Y-125935710D01*
X162493399Y-125933027D01*
X162451296Y-125920664D01*
X162446293Y-125919081D01*
X162248123Y-125851811D01*
X162236283Y-125847112D01*
X162213188Y-125836565D01*
X162209802Y-125834957D01*
X162077090Y-125769511D01*
X162007653Y-125735269D01*
X161993387Y-125727032D01*
X161789647Y-125590897D01*
X161776579Y-125580870D01*
X161592341Y-125419298D01*
X161580701Y-125407658D01*
X161419127Y-125223418D01*
X161409102Y-125210352D01*
X161344590Y-125113803D01*
X161272964Y-125006607D01*
X161264733Y-124992351D01*
X161165028Y-124790168D01*
X161163448Y-124786843D01*
X161152882Y-124763707D01*
X161148193Y-124751890D01*
X161080904Y-124553664D01*
X161079334Y-124548702D01*
X161066967Y-124506582D01*
X161064294Y-124495706D01*
X161025202Y-124299176D01*
X161024081Y-124292634D01*
X161016681Y-124241163D01*
X161015674Y-124231523D01*
X161000770Y-124004118D01*
X161000500Y-123995878D01*
X161000500Y-121878709D01*
X163149500Y-121878709D01*
X163149500Y-122121290D01*
X163181160Y-122361782D01*
X163243944Y-122596095D01*
X163243945Y-122596097D01*
X163243946Y-122596100D01*
X163336776Y-122820212D01*
X163336777Y-122820213D01*
X163336782Y-122820224D01*
X163458061Y-123030285D01*
X163458063Y-123030288D01*
X163458064Y-123030289D01*
X163605735Y-123222738D01*
X163605739Y-123222742D01*
X163605744Y-123222748D01*
X163777251Y-123394255D01*
X163777256Y-123394259D01*
X163777262Y-123394265D01*
X163969711Y-123541936D01*
X163969714Y-123541938D01*
X164179775Y-123663217D01*
X164179779Y-123663218D01*
X164179788Y-123663224D01*
X164403900Y-123756054D01*
X164638211Y-123818838D01*
X164638215Y-123818838D01*
X164638217Y-123818839D01*
X164700202Y-123826999D01*
X164878712Y-123850500D01*
X164878719Y-123850500D01*
X165121281Y-123850500D01*
X165121288Y-123850500D01*
X165338637Y-123821885D01*
X165361782Y-123818839D01*
X165361782Y-123818838D01*
X165361789Y-123818838D01*
X165596100Y-123756054D01*
X165820212Y-123663224D01*
X166030289Y-123541936D01*
X166222738Y-123394265D01*
X166394265Y-123222738D01*
X166541936Y-123030289D01*
X166663224Y-122820212D01*
X166756054Y-122596100D01*
X166818838Y-122361789D01*
X166850500Y-122121288D01*
X166850500Y-121878712D01*
X166850500Y-121878709D01*
X185149500Y-121878709D01*
X185149500Y-122121290D01*
X185181160Y-122361782D01*
X185243944Y-122596095D01*
X185243945Y-122596097D01*
X185243946Y-122596100D01*
X185336776Y-122820212D01*
X185336777Y-122820213D01*
X185336782Y-122820224D01*
X185458061Y-123030285D01*
X185458063Y-123030288D01*
X185458064Y-123030289D01*
X185605735Y-123222738D01*
X185605739Y-123222742D01*
X185605744Y-123222748D01*
X185777251Y-123394255D01*
X185777256Y-123394259D01*
X185777262Y-123394265D01*
X185969711Y-123541936D01*
X185969714Y-123541938D01*
X186179775Y-123663217D01*
X186179779Y-123663218D01*
X186179788Y-123663224D01*
X186403900Y-123756054D01*
X186638211Y-123818838D01*
X186638215Y-123818838D01*
X186638217Y-123818839D01*
X186700202Y-123826999D01*
X186878712Y-123850500D01*
X186878719Y-123850500D01*
X187121281Y-123850500D01*
X187121288Y-123850500D01*
X187338637Y-123821885D01*
X187361782Y-123818839D01*
X187361782Y-123818838D01*
X187361789Y-123818838D01*
X187596100Y-123756054D01*
X187820212Y-123663224D01*
X188030289Y-123541936D01*
X188222738Y-123394265D01*
X188394265Y-123222738D01*
X188541936Y-123030289D01*
X188663224Y-122820212D01*
X188756054Y-122596100D01*
X188818838Y-122361789D01*
X188850500Y-122121288D01*
X188850500Y-121878712D01*
X188818838Y-121638211D01*
X188756054Y-121403900D01*
X188663224Y-121179788D01*
X188663218Y-121179779D01*
X188663217Y-121179775D01*
X188541938Y-120969714D01*
X188541936Y-120969711D01*
X188394265Y-120777262D01*
X188394259Y-120777256D01*
X188394255Y-120777251D01*
X188222748Y-120605744D01*
X188222742Y-120605739D01*
X188222738Y-120605735D01*
X188030289Y-120458064D01*
X188030288Y-120458063D01*
X188030285Y-120458061D01*
X187820224Y-120336782D01*
X187820216Y-120336778D01*
X187820212Y-120336776D01*
X187596100Y-120243946D01*
X187596097Y-120243945D01*
X187596095Y-120243944D01*
X187361782Y-120181160D01*
X187121290Y-120149500D01*
X187121288Y-120149500D01*
X186878712Y-120149500D01*
X186878709Y-120149500D01*
X186638217Y-120181160D01*
X186403904Y-120243944D01*
X186403900Y-120243946D01*
X186179786Y-120336777D01*
X186179775Y-120336782D01*
X185969714Y-120458061D01*
X185777262Y-120605735D01*
X185777251Y-120605744D01*
X185605744Y-120777251D01*
X185605735Y-120777262D01*
X185458061Y-120969714D01*
X185336782Y-121179775D01*
X185336777Y-121179786D01*
X185243946Y-121403900D01*
X185243944Y-121403904D01*
X185181160Y-121638217D01*
X185149500Y-121878709D01*
X166850500Y-121878709D01*
X166818838Y-121638211D01*
X166756054Y-121403900D01*
X166663224Y-121179788D01*
X166663218Y-121179779D01*
X166663217Y-121179775D01*
X166541938Y-120969714D01*
X166541936Y-120969711D01*
X166394265Y-120777262D01*
X166394259Y-120777256D01*
X166394255Y-120777251D01*
X166222748Y-120605744D01*
X166222742Y-120605739D01*
X166222738Y-120605735D01*
X166030289Y-120458064D01*
X166030288Y-120458063D01*
X166030285Y-120458061D01*
X165820224Y-120336782D01*
X165820216Y-120336778D01*
X165820212Y-120336776D01*
X165596100Y-120243946D01*
X165596097Y-120243945D01*
X165596095Y-120243944D01*
X165361782Y-120181160D01*
X165121290Y-120149500D01*
X165121288Y-120149500D01*
X164878712Y-120149500D01*
X164878709Y-120149500D01*
X164638217Y-120181160D01*
X164403904Y-120243944D01*
X164403900Y-120243946D01*
X164179786Y-120336777D01*
X164179775Y-120336782D01*
X163969714Y-120458061D01*
X163777262Y-120605735D01*
X163777251Y-120605744D01*
X163605744Y-120777251D01*
X163605735Y-120777262D01*
X163458061Y-120969714D01*
X163336782Y-121179775D01*
X163336777Y-121179786D01*
X163243946Y-121403900D01*
X163243944Y-121403904D01*
X163181160Y-121638217D01*
X163149500Y-121878709D01*
X161000500Y-121878709D01*
X161000500Y-114851350D01*
X164108499Y-114851350D01*
X164108499Y-117148649D01*
X164115008Y-117209196D01*
X164115010Y-117209204D01*
X164166109Y-117346202D01*
X164166111Y-117346207D01*
X164253737Y-117463261D01*
X164370791Y-117550887D01*
X164370793Y-117550888D01*
X164370795Y-117550889D01*
X164419068Y-117568894D01*
X164507794Y-117601988D01*
X164507802Y-117601990D01*
X164568349Y-117608499D01*
X164568354Y-117608499D01*
X164568361Y-117608500D01*
X164568367Y-117608500D01*
X166865631Y-117608500D01*
X166865637Y-117608500D01*
X166865644Y-117608499D01*
X166865648Y-117608499D01*
X166926195Y-117601990D01*
X166926198Y-117601989D01*
X166926200Y-117601989D01*
X167063203Y-117550889D01*
X167180260Y-117463261D01*
X167229127Y-117397983D01*
X167267886Y-117346207D01*
X167267886Y-117346206D01*
X167267888Y-117346204D01*
X167306422Y-117242889D01*
X167348967Y-117186057D01*
X167350304Y-117185069D01*
X167397722Y-117150620D01*
X167565620Y-116982722D01*
X167572793Y-116975549D01*
X167572804Y-116975535D01*
X170183151Y-114365189D01*
X173599500Y-114365189D01*
X173599500Y-114634810D01*
X173629688Y-114902735D01*
X173689685Y-115165597D01*
X173778726Y-115420061D01*
X173778737Y-115420088D01*
X173895717Y-115663000D01*
X174039159Y-115891286D01*
X174207268Y-116102088D01*
X174397911Y-116292731D01*
X174608713Y-116460840D01*
X174836999Y-116604282D01*
X174837002Y-116604283D01*
X174837003Y-116604284D01*
X175079921Y-116721267D01*
X175079937Y-116721272D01*
X175079938Y-116721273D01*
X175334402Y-116810314D01*
X175334405Y-116810314D01*
X175334409Y-116810316D01*
X175597268Y-116870312D01*
X175787248Y-116891717D01*
X175865189Y-116900500D01*
X175865191Y-116900500D01*
X176134811Y-116900500D01*
X176202853Y-116892833D01*
X176402732Y-116870312D01*
X176665591Y-116810316D01*
X176920079Y-116721267D01*
X177162997Y-116604284D01*
X177391289Y-116460838D01*
X177602085Y-116292734D01*
X177792734Y-116102085D01*
X177960838Y-115891289D01*
X177972074Y-115873408D01*
X178104282Y-115663000D01*
X178104281Y-115663000D01*
X178104284Y-115662997D01*
X178221267Y-115420079D01*
X178310316Y-115165591D01*
X178370312Y-114902732D01*
X178400500Y-114634809D01*
X178400500Y-114365191D01*
X178396424Y-114329020D01*
X178379813Y-114181595D01*
X178370312Y-114097268D01*
X178310316Y-113834409D01*
X178221267Y-113579921D01*
X178104284Y-113337003D01*
X178104283Y-113337002D01*
X178104282Y-113336999D01*
X177960840Y-113108713D01*
X177792731Y-112897911D01*
X177602088Y-112707268D01*
X177391286Y-112539159D01*
X177163000Y-112395717D01*
X176920088Y-112278737D01*
X176920083Y-112278735D01*
X176920079Y-112278733D01*
X176920073Y-112278730D01*
X176920061Y-112278726D01*
X176665597Y-112189685D01*
X176402735Y-112129688D01*
X176134811Y-112099500D01*
X176134809Y-112099500D01*
X175865191Y-112099500D01*
X175865189Y-112099500D01*
X175597264Y-112129688D01*
X175334402Y-112189685D01*
X175079938Y-112278726D01*
X175079911Y-112278737D01*
X174836999Y-112395717D01*
X174608713Y-112539159D01*
X174397911Y-112707268D01*
X174207268Y-112897911D01*
X174039159Y-113108713D01*
X173895717Y-113336999D01*
X173778737Y-113579911D01*
X173778726Y-113579938D01*
X173689685Y-113834402D01*
X173629688Y-114097264D01*
X173599500Y-114365189D01*
X170183151Y-114365189D01*
X175650620Y-108897721D01*
X175790185Y-108705626D01*
X175867607Y-108553676D01*
X175916353Y-108502063D01*
X175985268Y-108484997D01*
X176052469Y-108507897D01*
X176096622Y-108563495D01*
X176099700Y-108571929D01*
X176102018Y-108579063D01*
X176209815Y-108790627D01*
X176349380Y-108982722D01*
X176349382Y-108982724D01*
X176349384Y-108982727D01*
X176521667Y-109155010D01*
X176521689Y-109155030D01*
X184346204Y-116979545D01*
X184346233Y-116979576D01*
X184517272Y-117150615D01*
X184517275Y-117150617D01*
X184517278Y-117150620D01*
X184622262Y-117226895D01*
X184709373Y-117290185D01*
X184920936Y-117397982D01*
X185146753Y-117471354D01*
X185146754Y-117471354D01*
X185146759Y-117471356D01*
X185381278Y-117508500D01*
X185618721Y-117508500D01*
X185667512Y-117508500D01*
X185706448Y-117514667D01*
X185873336Y-117568892D01*
X185873337Y-117568892D01*
X185873342Y-117568894D01*
X186123408Y-117608500D01*
X186123411Y-117608500D01*
X186376589Y-117608500D01*
X186376592Y-117608500D01*
X186626658Y-117568894D01*
X186867450Y-117490656D01*
X187093038Y-117375713D01*
X187297868Y-117226895D01*
X187476895Y-117047868D01*
X187625713Y-116843038D01*
X187740656Y-116617450D01*
X187818894Y-116376658D01*
X187858500Y-116126592D01*
X187858500Y-115873408D01*
X187818894Y-115623342D01*
X187740656Y-115382550D01*
X187625713Y-115156962D01*
X187476895Y-114952132D01*
X187476892Y-114952129D01*
X187476890Y-114952126D01*
X187297873Y-114773109D01*
X187297870Y-114773107D01*
X187297868Y-114773105D01*
X187093038Y-114624287D01*
X186876291Y-114513848D01*
X186859447Y-114503526D01*
X186767628Y-114436816D01*
X186556064Y-114329019D01*
X186556061Y-114329018D01*
X186556059Y-114329017D01*
X186330246Y-114255646D01*
X186330244Y-114255645D01*
X186330242Y-114255645D01*
X186095723Y-114218500D01*
X185904031Y-114218500D01*
X185835910Y-114198498D01*
X185814936Y-114181595D01*
X181404691Y-109771350D01*
X184641500Y-109771350D01*
X184641500Y-112068649D01*
X184648009Y-112129196D01*
X184648011Y-112129204D01*
X184699110Y-112266202D01*
X184699112Y-112266207D01*
X184786738Y-112383261D01*
X184903792Y-112470887D01*
X184903794Y-112470888D01*
X184903796Y-112470889D01*
X184962875Y-112492924D01*
X185040795Y-112521988D01*
X185040803Y-112521990D01*
X185101350Y-112528499D01*
X185101355Y-112528499D01*
X185101362Y-112528500D01*
X185101368Y-112528500D01*
X187398632Y-112528500D01*
X187398638Y-112528500D01*
X187398645Y-112528499D01*
X187398649Y-112528499D01*
X187459196Y-112521990D01*
X187459199Y-112521989D01*
X187459201Y-112521989D01*
X187596204Y-112470889D01*
X187713261Y-112383261D01*
X187779120Y-112295284D01*
X187800887Y-112266207D01*
X187800887Y-112266206D01*
X187800889Y-112266204D01*
X187851989Y-112129201D01*
X187858500Y-112068638D01*
X187858500Y-109771362D01*
X187858499Y-109771350D01*
X187851990Y-109710803D01*
X187851988Y-109710795D01*
X187822924Y-109632875D01*
X187800889Y-109573796D01*
X187800888Y-109573794D01*
X187800887Y-109573792D01*
X187713261Y-109456738D01*
X187596207Y-109369112D01*
X187596202Y-109369110D01*
X187459204Y-109318011D01*
X187459196Y-109318009D01*
X187398649Y-109311500D01*
X187398638Y-109311500D01*
X185101362Y-109311500D01*
X185101350Y-109311500D01*
X185040803Y-109318009D01*
X185040795Y-109318011D01*
X184903797Y-109369110D01*
X184903792Y-109369112D01*
X184786738Y-109456738D01*
X184699112Y-109573792D01*
X184699110Y-109573797D01*
X184648011Y-109710795D01*
X184648009Y-109710803D01*
X184641500Y-109771350D01*
X181404691Y-109771350D01*
X178838030Y-107204689D01*
X178814858Y-107172797D01*
X178790185Y-107124373D01*
X178650620Y-106932278D01*
X178650617Y-106932275D01*
X178650615Y-106932272D01*
X178482727Y-106764384D01*
X178482724Y-106764382D01*
X178482722Y-106764380D01*
X178290627Y-106624815D01*
X178079063Y-106517018D01*
X178079060Y-106517017D01*
X178079058Y-106517016D01*
X177853246Y-106443645D01*
X177853242Y-106443644D01*
X177853241Y-106443644D01*
X177775165Y-106431278D01*
X177659069Y-106412890D01*
X177594916Y-106382477D01*
X177557389Y-106322209D01*
X177558403Y-106251219D01*
X177597636Y-106192048D01*
X177659065Y-106163993D01*
X177794700Y-106142512D01*
X177983097Y-106081298D01*
X178159598Y-105991366D01*
X178319858Y-105874930D01*
X178459930Y-105734858D01*
X178576366Y-105574598D01*
X178666298Y-105398097D01*
X178727512Y-105209700D01*
X178758500Y-105014046D01*
X178758500Y-104878709D01*
X185149500Y-104878709D01*
X185149500Y-105121290D01*
X185181160Y-105361782D01*
X185243944Y-105596095D01*
X185243945Y-105596097D01*
X185243946Y-105596100D01*
X185336776Y-105820212D01*
X185336777Y-105820213D01*
X185336782Y-105820224D01*
X185458061Y-106030285D01*
X185458063Y-106030288D01*
X185458064Y-106030289D01*
X185605735Y-106222738D01*
X185605739Y-106222742D01*
X185605744Y-106222748D01*
X185777251Y-106394255D01*
X185777256Y-106394259D01*
X185777262Y-106394265D01*
X185969711Y-106541936D01*
X185969714Y-106541938D01*
X186179775Y-106663217D01*
X186179779Y-106663218D01*
X186179788Y-106663224D01*
X186403900Y-106756054D01*
X186638211Y-106818838D01*
X186638215Y-106818838D01*
X186638217Y-106818839D01*
X186700202Y-106826999D01*
X186878712Y-106850500D01*
X186878719Y-106850500D01*
X187121281Y-106850500D01*
X187121288Y-106850500D01*
X187338637Y-106821885D01*
X187361782Y-106818839D01*
X187361782Y-106818838D01*
X187361789Y-106818838D01*
X187596100Y-106756054D01*
X187820212Y-106663224D01*
X188030289Y-106541936D01*
X188222738Y-106394265D01*
X188394265Y-106222738D01*
X188541936Y-106030289D01*
X188663224Y-105820212D01*
X188756054Y-105596100D01*
X188818838Y-105361789D01*
X188850500Y-105121288D01*
X188850500Y-104878712D01*
X188819085Y-104640084D01*
X188818839Y-104638217D01*
X188818838Y-104638215D01*
X188818838Y-104638211D01*
X188756054Y-104403900D01*
X188663224Y-104179788D01*
X188663218Y-104179779D01*
X188663217Y-104179775D01*
X188541938Y-103969714D01*
X188530702Y-103955071D01*
X188394265Y-103777262D01*
X188394259Y-103777256D01*
X188394255Y-103777251D01*
X188222748Y-103605744D01*
X188222742Y-103605739D01*
X188222738Y-103605735D01*
X188030289Y-103458064D01*
X188030288Y-103458063D01*
X188030285Y-103458061D01*
X187820224Y-103336782D01*
X187820216Y-103336778D01*
X187820212Y-103336776D01*
X187596100Y-103243946D01*
X187596097Y-103243945D01*
X187596095Y-103243944D01*
X187361782Y-103181160D01*
X187121290Y-103149500D01*
X187121288Y-103149500D01*
X186878712Y-103149500D01*
X186878709Y-103149500D01*
X186638217Y-103181160D01*
X186403904Y-103243944D01*
X186403900Y-103243946D01*
X186179786Y-103336777D01*
X186179775Y-103336782D01*
X185969714Y-103458061D01*
X185777262Y-103605735D01*
X185777251Y-103605744D01*
X185605744Y-103777251D01*
X185605735Y-103777262D01*
X185458061Y-103969714D01*
X185336782Y-104179775D01*
X185336777Y-104179786D01*
X185336776Y-104179788D01*
X185305456Y-104255402D01*
X185243946Y-104403900D01*
X185243944Y-104403904D01*
X185181160Y-104638217D01*
X185149500Y-104878709D01*
X178758500Y-104878709D01*
X178758500Y-104815954D01*
X178727512Y-104620300D01*
X178666298Y-104431903D01*
X178576366Y-104255402D01*
X178459930Y-104095142D01*
X178459928Y-104095139D01*
X178319860Y-103955071D01*
X178245552Y-103901083D01*
X179749500Y-103901083D01*
X179749500Y-104048916D01*
X179778342Y-104193913D01*
X179778343Y-104193916D01*
X179803918Y-104255660D01*
X179834916Y-104330495D01*
X179917049Y-104453416D01*
X180021584Y-104557951D01*
X180144505Y-104640084D01*
X180281087Y-104696658D01*
X180426082Y-104725500D01*
X180426087Y-104725500D01*
X180573913Y-104725500D01*
X180573918Y-104725500D01*
X180718913Y-104696658D01*
X180855495Y-104640084D01*
X180978416Y-104557951D01*
X181082951Y-104453416D01*
X181165084Y-104330495D01*
X181221658Y-104193913D01*
X181250500Y-104048918D01*
X181250500Y-103901082D01*
X181221658Y-103756087D01*
X181165084Y-103619505D01*
X181082951Y-103496584D01*
X180978416Y-103392049D01*
X180855495Y-103309916D01*
X180718916Y-103253343D01*
X180718913Y-103253342D01*
X180671667Y-103243944D01*
X180573918Y-103224500D01*
X180426082Y-103224500D01*
X180353584Y-103238921D01*
X180281086Y-103253342D01*
X180281083Y-103253343D01*
X180144504Y-103309916D01*
X180021588Y-103392046D01*
X180021581Y-103392051D01*
X179917051Y-103496581D01*
X179917046Y-103496588D01*
X179834916Y-103619504D01*
X179778343Y-103756083D01*
X179778342Y-103756086D01*
X179749500Y-103901083D01*
X178245552Y-103901083D01*
X178159601Y-103838636D01*
X178159600Y-103838635D01*
X178159598Y-103838634D01*
X177983097Y-103748702D01*
X177794700Y-103687488D01*
X177599046Y-103656500D01*
X177400954Y-103656500D01*
X177205300Y-103687488D01*
X177205297Y-103687488D01*
X177205296Y-103687489D01*
X177016903Y-103748702D01*
X177016901Y-103748703D01*
X176840398Y-103838636D01*
X176680139Y-103955071D01*
X176540071Y-104095139D01*
X176423636Y-104255398D01*
X176423634Y-104255402D01*
X176333702Y-104431903D01*
X176272488Y-104620300D01*
X176241500Y-104815954D01*
X176241500Y-105014046D01*
X176272488Y-105209700D01*
X176333702Y-105398097D01*
X176423634Y-105574598D01*
X176423636Y-105574601D01*
X176540071Y-105734860D01*
X176680139Y-105874928D01*
X176680142Y-105874930D01*
X176840402Y-105991366D01*
X177016903Y-106081298D01*
X177205300Y-106142512D01*
X177340932Y-106163993D01*
X177405082Y-106194404D01*
X177442609Y-106254672D01*
X177441596Y-106325661D01*
X177402364Y-106384833D01*
X177340930Y-106412890D01*
X177165401Y-106440691D01*
X177146766Y-106443643D01*
X177146753Y-106443645D01*
X176920941Y-106517016D01*
X176920935Y-106517019D01*
X176709369Y-106624817D01*
X176517275Y-106764382D01*
X176517272Y-106764384D01*
X176349384Y-106932272D01*
X176349382Y-106932275D01*
X176209817Y-107124369D01*
X176112267Y-107315823D01*
X176063519Y-107367438D01*
X175994604Y-107384504D01*
X175927402Y-107361603D01*
X175887733Y-107315823D01*
X175790185Y-107124373D01*
X175650620Y-106932278D01*
X175650617Y-106932275D01*
X175650615Y-106932272D01*
X175482727Y-106764384D01*
X175482724Y-106764382D01*
X175482722Y-106764380D01*
X175290627Y-106624815D01*
X175079063Y-106517018D01*
X175079062Y-106517017D01*
X175079061Y-106517017D01*
X174853244Y-106443644D01*
X174853241Y-106443643D01*
X174657471Y-106412636D01*
X174593320Y-106382224D01*
X174555793Y-106321956D01*
X174556807Y-106250967D01*
X174596040Y-106191795D01*
X174657473Y-106163739D01*
X174794585Y-106142022D01*
X174982902Y-106080834D01*
X175159337Y-105990936D01*
X175159339Y-105990935D01*
X175192575Y-105966787D01*
X175192576Y-105966786D01*
X174624947Y-105399157D01*
X174692993Y-105380925D01*
X174807007Y-105315099D01*
X174900099Y-105222007D01*
X174965925Y-105107993D01*
X174984158Y-105039947D01*
X175551786Y-105607576D01*
X175551787Y-105607575D01*
X175575935Y-105574339D01*
X175575936Y-105574337D01*
X175665834Y-105397902D01*
X175727022Y-105209585D01*
X175758000Y-105014003D01*
X175758000Y-104815996D01*
X175727022Y-104620414D01*
X175665834Y-104432097D01*
X175575935Y-104255660D01*
X175551787Y-104222423D01*
X175551785Y-104222423D01*
X174984157Y-104790051D01*
X174965925Y-104722007D01*
X174900099Y-104607993D01*
X174807007Y-104514901D01*
X174692993Y-104449075D01*
X174624946Y-104430841D01*
X175192575Y-103863212D01*
X175159330Y-103839058D01*
X174982905Y-103749166D01*
X174794585Y-103687977D01*
X174599004Y-103657000D01*
X174400996Y-103657000D01*
X174205414Y-103687977D01*
X174017094Y-103749166D01*
X173840671Y-103839057D01*
X173840667Y-103839060D01*
X173807422Y-103863212D01*
X174375052Y-104430842D01*
X174307007Y-104449075D01*
X174192993Y-104514901D01*
X174099901Y-104607993D01*
X174034075Y-104722007D01*
X174015842Y-104790052D01*
X173448212Y-104222422D01*
X173424060Y-104255667D01*
X173424057Y-104255671D01*
X173334166Y-104432094D01*
X173272977Y-104620414D01*
X173242000Y-104815996D01*
X173242000Y-105014003D01*
X173272977Y-105209585D01*
X173334166Y-105397905D01*
X173424058Y-105574330D01*
X173448212Y-105607575D01*
X174015841Y-105039946D01*
X174034075Y-105107993D01*
X174099901Y-105222007D01*
X174192993Y-105315099D01*
X174307007Y-105380925D01*
X174375051Y-105399157D01*
X173807423Y-105966785D01*
X173807423Y-105966787D01*
X173840660Y-105990935D01*
X174017097Y-106080834D01*
X174205414Y-106142022D01*
X174342526Y-106163739D01*
X174406679Y-106194151D01*
X174444206Y-106254420D01*
X174443192Y-106325409D01*
X174403959Y-106384581D01*
X174342527Y-106412636D01*
X174146759Y-106443643D01*
X174146756Y-106443643D01*
X174146755Y-106443644D01*
X173920938Y-106517017D01*
X173709370Y-106624817D01*
X173517276Y-106764382D01*
X173517273Y-106764384D01*
X165927064Y-114354595D01*
X165864752Y-114388621D01*
X165837969Y-114391500D01*
X164568349Y-114391500D01*
X164507802Y-114398009D01*
X164507794Y-114398011D01*
X164370796Y-114449110D01*
X164370791Y-114449112D01*
X164253737Y-114536738D01*
X164166111Y-114653792D01*
X164166109Y-114653797D01*
X164115010Y-114790795D01*
X164115008Y-114790803D01*
X164108499Y-114851350D01*
X161000500Y-114851350D01*
X161000500Y-110793451D01*
X164108999Y-110793451D01*
X164108999Y-111046548D01*
X164148595Y-111296546D01*
X164226805Y-111537253D01*
X164226808Y-111537259D01*
X164341716Y-111762779D01*
X164414638Y-111863148D01*
X164414640Y-111863148D01*
X165076032Y-111201755D01*
X165096668Y-111251574D01*
X165173274Y-111366223D01*
X165270776Y-111463725D01*
X165385425Y-111540331D01*
X165435241Y-111560965D01*
X164773849Y-112222357D01*
X164773849Y-112222359D01*
X164874219Y-112295282D01*
X165099739Y-112410190D01*
X165099745Y-112410193D01*
X165340453Y-112488403D01*
X165340450Y-112488403D01*
X165590450Y-112528000D01*
X165843548Y-112528000D01*
X166093545Y-112488403D01*
X166334252Y-112410193D01*
X166334258Y-112410190D01*
X166559774Y-112295284D01*
X166660147Y-112222358D01*
X166660147Y-112222357D01*
X165998755Y-111560965D01*
X166048573Y-111540331D01*
X166163222Y-111463725D01*
X166260724Y-111366223D01*
X166337330Y-111251574D01*
X166357964Y-111201756D01*
X167019356Y-111863148D01*
X167019357Y-111863148D01*
X167092283Y-111762775D01*
X167207189Y-111537259D01*
X167207192Y-111537253D01*
X167285402Y-111296546D01*
X167324999Y-111046548D01*
X167324999Y-110793451D01*
X167285402Y-110543453D01*
X167207192Y-110302746D01*
X167207189Y-110302740D01*
X167092281Y-110077220D01*
X167019358Y-109976850D01*
X167019356Y-109976850D01*
X166357964Y-110638242D01*
X166337330Y-110588426D01*
X166260724Y-110473777D01*
X166163222Y-110376275D01*
X166048573Y-110299669D01*
X165998755Y-110279034D01*
X166660147Y-109617641D01*
X166660147Y-109617639D01*
X166559778Y-109544717D01*
X166334258Y-109429809D01*
X166334252Y-109429806D01*
X166093544Y-109351596D01*
X166093547Y-109351596D01*
X165843548Y-109312000D01*
X165590450Y-109312000D01*
X165340452Y-109351596D01*
X165099745Y-109429806D01*
X165099739Y-109429809D01*
X164874224Y-109544714D01*
X164874223Y-109544715D01*
X164773849Y-109617640D01*
X164773849Y-109617641D01*
X165435242Y-110279034D01*
X165385425Y-110299669D01*
X165270776Y-110376275D01*
X165173274Y-110473777D01*
X165096668Y-110588426D01*
X165076033Y-110638243D01*
X164414640Y-109976850D01*
X164414639Y-109976850D01*
X164341714Y-110077224D01*
X164341713Y-110077225D01*
X164226808Y-110302740D01*
X164226805Y-110302746D01*
X164148595Y-110543453D01*
X164108999Y-110793451D01*
X161000500Y-110793451D01*
X161000500Y-104878709D01*
X163149500Y-104878709D01*
X163149500Y-105121290D01*
X163181160Y-105361782D01*
X163243944Y-105596095D01*
X163243945Y-105596097D01*
X163243946Y-105596100D01*
X163336776Y-105820212D01*
X163336777Y-105820213D01*
X163336782Y-105820224D01*
X163458061Y-106030285D01*
X163458063Y-106030288D01*
X163458064Y-106030289D01*
X163605735Y-106222738D01*
X163605739Y-106222742D01*
X163605744Y-106222748D01*
X163777251Y-106394255D01*
X163777256Y-106394259D01*
X163777262Y-106394265D01*
X163969711Y-106541936D01*
X163969714Y-106541938D01*
X164179775Y-106663217D01*
X164179779Y-106663218D01*
X164179788Y-106663224D01*
X164403900Y-106756054D01*
X164638211Y-106818838D01*
X164638215Y-106818838D01*
X164638217Y-106818839D01*
X164700202Y-106826999D01*
X164878712Y-106850500D01*
X164878719Y-106850500D01*
X165121281Y-106850500D01*
X165121288Y-106850500D01*
X165338637Y-106821885D01*
X165361782Y-106818839D01*
X165361782Y-106818838D01*
X165361789Y-106818838D01*
X165596100Y-106756054D01*
X165820212Y-106663224D01*
X166030289Y-106541936D01*
X166222738Y-106394265D01*
X166394265Y-106222738D01*
X166541936Y-106030289D01*
X166663224Y-105820212D01*
X166756054Y-105596100D01*
X166818838Y-105361789D01*
X166850500Y-105121288D01*
X166850500Y-104878712D01*
X166819085Y-104640084D01*
X166818839Y-104638217D01*
X166818838Y-104638215D01*
X166818838Y-104638211D01*
X166756054Y-104403900D01*
X166663224Y-104179788D01*
X166663218Y-104179779D01*
X166663217Y-104179775D01*
X166541938Y-103969714D01*
X166530702Y-103955071D01*
X166489276Y-103901083D01*
X170749500Y-103901083D01*
X170749500Y-104048916D01*
X170778342Y-104193913D01*
X170778343Y-104193916D01*
X170803918Y-104255660D01*
X170834916Y-104330495D01*
X170917049Y-104453416D01*
X171021584Y-104557951D01*
X171144505Y-104640084D01*
X171281087Y-104696658D01*
X171426082Y-104725500D01*
X171426087Y-104725500D01*
X171573913Y-104725500D01*
X171573918Y-104725500D01*
X171718913Y-104696658D01*
X171855495Y-104640084D01*
X171978416Y-104557951D01*
X172082951Y-104453416D01*
X172165084Y-104330495D01*
X172221658Y-104193913D01*
X172250500Y-104048918D01*
X172250500Y-103901082D01*
X172221658Y-103756087D01*
X172165084Y-103619505D01*
X172082951Y-103496584D01*
X171978416Y-103392049D01*
X171855495Y-103309916D01*
X171718916Y-103253343D01*
X171718913Y-103253342D01*
X171671667Y-103243944D01*
X171573918Y-103224500D01*
X171426082Y-103224500D01*
X171353584Y-103238921D01*
X171281086Y-103253342D01*
X171281083Y-103253343D01*
X171144504Y-103309916D01*
X171021588Y-103392046D01*
X171021581Y-103392051D01*
X170917051Y-103496581D01*
X170917046Y-103496588D01*
X170834916Y-103619504D01*
X170778343Y-103756083D01*
X170778342Y-103756086D01*
X170749500Y-103901083D01*
X166489276Y-103901083D01*
X166394265Y-103777262D01*
X166394259Y-103777256D01*
X166394255Y-103777251D01*
X166222748Y-103605744D01*
X166222742Y-103605739D01*
X166222738Y-103605735D01*
X166030289Y-103458064D01*
X166030288Y-103458063D01*
X166030285Y-103458061D01*
X165820224Y-103336782D01*
X165820216Y-103336778D01*
X165820212Y-103336776D01*
X165596100Y-103243946D01*
X165596097Y-103243945D01*
X165596095Y-103243944D01*
X165361782Y-103181160D01*
X165121290Y-103149500D01*
X165121288Y-103149500D01*
X164878712Y-103149500D01*
X164878709Y-103149500D01*
X164638217Y-103181160D01*
X164403904Y-103243944D01*
X164403900Y-103243946D01*
X164179786Y-103336777D01*
X164179775Y-103336782D01*
X163969714Y-103458061D01*
X163777262Y-103605735D01*
X163777251Y-103605744D01*
X163605744Y-103777251D01*
X163605735Y-103777262D01*
X163458061Y-103969714D01*
X163336782Y-104179775D01*
X163336777Y-104179786D01*
X163336776Y-104179788D01*
X163305456Y-104255402D01*
X163243946Y-104403900D01*
X163243944Y-104403904D01*
X163181160Y-104638217D01*
X163149500Y-104878709D01*
X161000500Y-104878709D01*
X161000500Y-103004120D01*
X161000770Y-102995880D01*
X161015675Y-102768468D01*
X161016680Y-102758841D01*
X161024083Y-102707353D01*
X161025199Y-102700835D01*
X161064296Y-102504283D01*
X161066964Y-102493427D01*
X161079347Y-102451254D01*
X161080894Y-102446363D01*
X161148197Y-102248095D01*
X161152887Y-102236283D01*
X161163443Y-102213168D01*
X161165020Y-102209847D01*
X161264731Y-102007651D01*
X161272970Y-101993383D01*
X161409109Y-101789637D01*
X161419121Y-101776588D01*
X161580708Y-101592333D01*
X161592333Y-101580708D01*
X161776588Y-101419121D01*
X161789637Y-101409109D01*
X161993389Y-101272966D01*
X162007651Y-101264731D01*
X162209847Y-101165020D01*
X162213168Y-101163443D01*
X162236295Y-101152881D01*
X162248095Y-101148197D01*
X162446363Y-101080894D01*
X162451254Y-101079347D01*
X162493427Y-101066964D01*
X162504283Y-101064296D01*
X162700835Y-101025199D01*
X162707353Y-101024083D01*
X162758841Y-101016680D01*
X162768471Y-101015675D01*
X162995881Y-101000769D01*
X163004120Y-101000500D01*
X188995879Y-101000500D01*
X189004119Y-101000770D01*
G37*
%TD.AperFunction*%
%TD*%
M02*
